<?xml version="1.0" encoding="UTF-8"?>
<svg xmlns="http://www.w3.org/2000/svg" width="50.35px" height="27.8px" viewBox="0 0 50.35 27.8">
  <g transform="matrix(1, 0, 0, 1, -1.45, -1.4)">
    <path d="M50 26.2 L49.95 26.2 49.9 26.25 49.85 26.4 Q47.85 28.2 45.15 28.2 L8.05 28.2 Q5.3 28.15 3.4 26.3 1.4 24.3 1.45 21.6 L1.45 8.05 Q1.45 5.4 3.25 3.55 L3.35 3.45 3.45 3.3 3.6 3.2 Q5.4 1.4 8.05 1.4 L45.15 1.4 Q47.85 1.4 49.85 3.4 51.75 5.25 51.8 8.05 L51.8 21.6 Q51.75 24.25 50 26.2" fill="#875101" fill-rule="evenodd"/>
    <path d="M46.2 7.05 Q46.6 7.45 46.55 8.05 L46.55 21.6 46.25 22.6 46.15 22.65 45.15 23 L8.05 23 Q7.45 23 7.1 22.65 6.65 22.2 6.65 21.6 L6.65 8.05 Q6.65 7.5 7.05 7.15 L7.15 7.05 Q7.5 6.65 8.05 6.65 L45.15 6.65 Q45.75 6.6 46.2 7.05" fill="#a36932" fill-rule="evenodd"/>
    <path d="M46.2 7.05 Q45.75 6.6 45.15 6.65 L8.05 6.65 Q7.5 6.65 7.15 7.05 L7.05 7.15 Q6.65 7.5 6.65 8.05 L6.65 21.6 Q6.65 22.2 7.1 22.65 7.45 23 8.05 23 L45.15 23 46.15 22.65 46.25 22.6 46.55 21.6 46.55 8.05 Q46.6 7.45 46.2 7.05 M47.95 8.05 L47.95 21.6 Q47.95 22.75 47.2 23.6 L47.15 23.65 Q46.3 24.4 45.15 24.4 L8.05 24.4 Q6.85 24.4 6.1 23.65 5.25 22.75 5.25 21.6 L5.25 8.05 Q5.25 6.9 6.05 6.1 L6.15 6.05 Q6.9 5.2 8.05 5.25 L45.15 5.25 Q46.3 5.25 47.2 6.1 47.95 6.85 47.95 8.05" fill="#674321" fill-rule="evenodd"/>
    <path d="M47.95 8.05 Q47.95 6.85 47.2 6.1 46.3 5.25 45.15 5.25 L8.05 5.25 Q6.9 5.2 6.15 6.05 L6.05 6.1 Q5.25 6.9 5.25 8.05 L5.25 21.6 Q5.25 22.75 6.1 23.65 6.85 24.4 8.05 24.4 L45.15 24.4 Q46.3 24.4 47.15 23.65 L47.2 23.6 Q47.95 22.75 47.95 21.6 L47.95 8.05 M45.15 2.4 Q47.45 2.4 49.15 4.1 50.75 5.7 50.8 8.05 L50.8 21.6 Q50.75 23.9 49.2 25.55 L49.15 25.65 Q47.45 27.2 45.15 27.2 L8.05 27.2 Q5.7 27.2 4.1 25.6 2.4 23.9 2.45 21.6 L2.45 8.05 Q2.45 5.7 4.1 4.15 L4.15 4.05 Q5.75 2.4 8.05 2.4 L45.15 2.4" fill="#e1bd6a" fill-rule="evenodd"/>
  </g>
</svg>
